<svg width="32" height="32" viewBox="0 0 32 32" fill="none" xmlns="http://www.w3.org/2000/svg">
<path d="M15.9342 10.3798C13.1366 10.3708 10.8464 12.6861 10.8376 15.5322C10.8288 18.3783 13.1047 20.7083 15.9023 20.7173C18.6999 20.7263 20.9901 18.4109 20.9989 15.5648C21.0076 12.7187 18.7317 10.3887 15.9342 10.3798ZM31.1563 15.5974C31.1629 13.457 31.1885 11.336 31.0769 9.1991C30.9664 6.71709 30.4167 4.51286 28.6386 2.69245C26.8566 0.868157 24.6973 0.298986 22.2583 0.170963C20.1548 0.0440155 18.0699 0.0567205 15.9698 0.0499888C13.8659 0.043245 11.7811 0.0171744 9.68062 0.130647C7.24093 0.243032 5.0743 0.802213 3.28496 2.61119C1.4918 4.42402 0.932375 6.62082 0.806579 9.10207C0.681834 11.2421 0.69436 13.3632 0.687781 15.4997C0.681202 17.6362 0.655601 19.7611 0.767176 21.898C0.877689 24.38 1.42738 26.5842 3.20554 28.4046C4.9875 30.2289 7.14684 30.7981 9.58579 30.9261C11.6893 31.053 13.7742 31.0403 15.8743 31.0471C17.9782 31.0538 20.063 31.0799 22.1635 30.9664C24.6032 30.854 26.7698 30.2948 28.5592 28.4859C30.3523 26.673 30.9117 24.4762 31.0375 21.995C31.1661 19.8589 31.1497 17.7378 31.1563 15.5974ZM15.8938 23.5014C11.5678 23.4875 8.08745 19.9245 8.10101 15.5235C8.11456 11.1224 11.6168 7.58181 15.9427 7.59568C20.2687 7.60954 23.749 11.1726 23.7355 15.5736C23.7219 19.9746 20.2197 23.5152 15.8938 23.5014ZM24.0754 9.15339C23.0654 9.15015 22.2523 8.31774 22.2555 7.29019C22.2586 6.26265 23.0768 5.43547 24.0869 5.4387C25.0969 5.44194 25.91 6.27435 25.9068 7.3019C25.9064 7.5459 25.8586 7.7874 25.7663 8.01259C25.6739 8.23778 25.5388 8.44222 25.3687 8.61421C25.1986 8.7862 24.9968 8.92235 24.7749 9.01487C24.5529 9.10739 24.3152 9.15446 24.0754 9.15339Z" fill="#FFFEEE"/>
</svg>
